<svg width="16" height="15" viewBox="0 0 16 15" fill="none" xmlns="http://www.w3.org/2000/svg">
<path d="M4.44608 13C3.98744 13 3.53389 12.8879 3.08545 12.6637C2.637 12.4394 2.27518 12.1439 2 11.777C2.26499 11.777 2.53508 11.6725 2.81026 11.4636C3.08545 11.2546 3.22304 10.9514 3.22304 10.5539C3.22304 10.0443 3.4014 9.61117 3.75812 9.25445C4.11484 8.89773 4.548 8.71937 5.05759 8.71937C5.56719 8.71937 6.00035 8.89773 6.35707 9.25445C6.71379 9.61117 6.89215 10.0443 6.89215 10.5539C6.89215 11.2266 6.65264 11.8024 6.17362 12.2815C5.69459 12.7605 5.11875 13 4.44608 13ZM7.96231 9.33089L6.28063 7.64921L11.7537 2.17612C11.8658 2.06401 12.006 2.0054 12.1741 2.00031C12.3423 1.99521 12.4875 2.05381 12.6099 2.17612L13.4354 3.00167C13.5577 3.12397 13.6189 3.26666 13.6189 3.42973C13.6189 3.5928 13.5577 3.73549 13.4354 3.85779L7.96231 9.33089Z" fill="#FFE598"/>
</svg>
