<svg width="16" height="16" viewBox="0 0 16 16" fill="none" xmlns="http://www.w3.org/2000/svg">
<path d="M9.15703 14C8.91893 14 8.71655 13.9167 8.54988 13.75C8.38322 13.5833 8.29988 13.381 8.29988 13.1429V9.14286C8.29988 8.90476 8.38322 8.70238 8.54988 8.53571C8.71655 8.36905 8.91893 8.28571 9.15703 8.28571H13.157C13.3951 8.28571 13.5975 8.36905 13.7642 8.53571C13.9308 8.70238 14.0142 8.90476 14.0142 9.14286V13.1429C14.0142 13.381 13.9308 13.5833 13.7642 13.75C13.5975 13.9167 13.3951 14 13.157 14H9.15703ZM6.15702 13.4286L5.92845 11.6C5.80464 11.5524 5.68798 11.4952 5.57845 11.4286C5.46893 11.3619 5.36179 11.2905 5.25702 11.2143L3.55702 11.9286L1.9856 9.21429L3.45702 8.1C3.4475 8.03333 3.44274 7.96905 3.44274 7.90714V7.52143C3.44274 7.45952 3.4475 7.39524 3.45702 7.32857L1.9856 6.21429L3.55702 3.5L5.25702 4.21429C5.36179 4.1381 5.47131 4.06667 5.5856 4C5.69988 3.93333 5.81417 3.87619 5.92845 3.82857L6.15702 2H9.29988L9.52845 3.82857C9.65226 3.87619 9.76893 3.93333 9.87845 4C9.98798 4.06667 10.0951 4.1381 10.1999 4.21429L11.8999 3.5L13.4713 6.21429L12.257 7.14286H9.67131C9.53798 6.73333 9.29988 6.39286 8.95703 6.12143C8.61417 5.85 8.21417 5.71429 7.75703 5.71429C7.20464 5.71429 6.73322 5.90952 6.34274 6.3C5.95226 6.69048 5.75702 7.1619 5.75702 7.71429C5.75702 8.17143 5.8856 8.57143 6.14274 8.91429C6.39988 9.25714 6.73798 9.49524 7.15703 9.62857V13.4286H6.15702ZM9.44274 12.8571H12.8713V12.3857C12.6332 12.1667 12.3665 12 12.0713 11.8857C11.7761 11.7714 11.4713 11.7143 11.157 11.7143C10.8427 11.7143 10.538 11.7714 10.2427 11.8857C9.9475 12 9.68083 12.1667 9.44274 12.3857V12.8571ZM11.157 11.1429C11.3951 11.1429 11.5975 11.0595 11.7642 10.8929C11.9308 10.7262 12.0142 10.5238 12.0142 10.2857C12.0142 10.0476 11.9308 9.84524 11.7642 9.67857C11.5975 9.51191 11.3951 9.42857 11.157 9.42857C10.9189 9.42857 10.7165 9.51191 10.5499 9.67857C10.3832 9.84524 10.2999 10.0476 10.2999 10.2857C10.2999 10.5238 10.3832 10.7262 10.5499 10.8929C10.7165 11.0595 10.9189 11.1429 11.157 11.1429Z" fill="#6EB2DC"/>
</svg>
