<svg width="32" height="32" viewBox="0 0 32 32" fill="none" xmlns="http://www.w3.org/2000/svg">
<path d="M3.44886 25V11.9091H7.07955V25H3.44886ZM5.27273 10.2216C4.73295 10.2216 4.26989 10.0426 3.88352 9.68466C3.50284 9.32102 3.3125 8.88636 3.3125 8.38068C3.3125 7.88068 3.50284 7.4517 3.88352 7.09375C4.26989 6.73011 4.73295 6.54829 5.27273 6.54829C5.8125 6.54829 6.27273 6.73011 6.65341 7.09375C7.03977 7.4517 7.23295 7.88068 7.23295 8.38068C7.23295 8.88636 7.03977 9.32102 6.65341 9.68466C6.27273 10.0426 5.8125 10.2216 5.27273 10.2216Z" fill="#FF6E82"/>
<path d="M13.0906 17.4318V25H9.45993V11.9091H12.9202V14.2188H13.0736C13.3633 13.4574 13.8491 12.8551 14.5309 12.4119C15.2128 11.9631 16.0395 11.7386 17.0111 11.7386C17.9202 11.7386 18.7128 11.9375 19.3889 12.3352C20.065 12.733 20.5906 13.3011 20.9656 14.0398C21.3406 14.7727 21.5281 15.6477 21.5281 16.6648V25H17.8974V17.3125C17.9031 16.5114 17.6986 15.8864 17.2838 15.4375C16.869 14.983 16.298 14.7557 15.5707 14.7557C15.0821 14.7557 14.6503 14.8608 14.2753 15.071C13.9059 15.2812 13.6162 15.5881 13.4059 15.9915C13.2014 16.3892 13.0963 16.8693 13.0906 17.4318Z" fill="#8AC926"/>
<path d="M25.9838 25.2216C25.4213 25.2216 24.9383 25.0227 24.5349 24.625C24.1372 24.2216 23.9383 23.7386 23.9383 23.1761C23.9383 22.6193 24.1372 22.142 24.5349 21.7443C24.9383 21.3466 25.4213 21.1477 25.9838 21.1477C26.5292 21.1477 27.0065 21.3466 27.4156 21.7443C27.8247 22.142 28.0292 22.6193 28.0292 23.1761C28.0292 23.5511 27.9326 23.8949 27.7395 24.2074C27.552 24.5142 27.3048 24.7614 26.998 24.9489C26.6912 25.1307 26.3531 25.2216 25.9838 25.2216Z" fill="#FFD153"/>
</svg>
