<svg width="33" height="33" viewBox="0 0 33 33" fill="none" xmlns="http://www.w3.org/2000/svg">
<path d="M8.9375 27.5C6.85208 27.5 5.07031 26.7781 3.59219 25.3344C2.11406 23.8906 1.375 22.126 1.375 20.0406C1.375 18.2531 1.91354 16.6604 2.99062 15.2625C4.06771 13.8646 5.47708 12.9708 7.21875 12.5813C7.79167 10.4729 8.9375 8.76563 10.6562 7.45938C12.375 6.15313 14.3229 5.5 16.5 5.5C19.1812 5.5 21.4557 6.43385 23.3234 8.30156C25.1911 10.1693 26.125 12.4438 26.125 15.125C27.7062 15.3083 29.0182 15.9901 30.0609 17.1703C31.1036 18.3505 31.625 19.7313 31.625 21.3125C31.625 23.0313 31.0234 24.4922 29.8203 25.6953C28.6172 26.8984 27.1562 27.5 25.4375 27.5H8.9375Z" fill="#CCCCCC"/>
</svg>
