<svg width="40" height="41" viewBox="0 0 40 41" fill="none" xmlns="http://www.w3.org/2000/svg">
<path d="M20 28.8333C17.6945 28.8333 15.7292 28.0208 14.1042 26.3958C12.4792 24.7708 11.6667 22.8055 11.6667 20.5C11.6667 18.1944 12.4792 16.2291 14.1042 14.6041C15.7292 12.9791 17.6945 12.1666 20 12.1666C22.3056 12.1666 24.2709 12.9791 25.8959 14.6041C27.5209 16.2291 28.3334 18.1944 28.3334 20.5C28.3334 22.8055 27.5209 24.7708 25.8959 26.3958C24.2709 28.0208 22.3056 28.8333 20 28.8333ZM3.33335 22.1666C2.86113 22.1666 2.4653 22.0069 2.14585 21.6875C1.82641 21.368 1.66669 20.9722 1.66669 20.5C1.66669 20.0277 1.82641 19.6319 2.14585 19.3125C2.4653 18.993 2.86113 18.8333 3.33335 18.8333H6.66669C7.13891 18.8333 7.53474 18.993 7.85419 19.3125C8.17363 19.6319 8.33335 20.0277 8.33335 20.5C8.33335 20.9722 8.17363 21.368 7.85419 21.6875C7.53474 22.0069 7.13891 22.1666 6.66669 22.1666H3.33335ZM33.3334 22.1666C32.8611 22.1666 32.4653 22.0069 32.1459 21.6875C31.8264 21.368 31.6667 20.9722 31.6667 20.5C31.6667 20.0277 31.8264 19.6319 32.1459 19.3125C32.4653 18.993 32.8611 18.8333 33.3334 18.8333H36.6667C37.1389 18.8333 37.5347 18.993 37.8542 19.3125C38.1736 19.6319 38.3334 20.0277 38.3334 20.5C38.3334 20.9722 38.1736 21.368 37.8542 21.6875C37.5347 22.0069 37.1389 22.1666 36.6667 22.1666H33.3334ZM20 8.83329C19.5278 8.83329 19.132 8.67357 18.8125 8.35413C18.4931 8.03468 18.3334 7.63885 18.3334 7.16663V3.83329C18.3334 3.36107 18.4931 2.96524 18.8125 2.64579C19.132 2.32635 19.5278 2.16663 20 2.16663C20.4722 2.16663 20.8681 2.32635 21.1875 2.64579C21.507 2.96524 21.6667 3.36107 21.6667 3.83329V7.16663C21.6667 7.63885 21.507 8.03468 21.1875 8.35413C20.8681 8.67357 20.4722 8.83329 20 8.83329ZM20 38.8333C19.5278 38.8333 19.132 38.6736 18.8125 38.3541C18.4931 38.0347 18.3334 37.6388 18.3334 37.1666V33.8333C18.3334 33.3611 18.4931 32.9652 18.8125 32.6458C19.132 32.3263 19.5278 32.1666 20 32.1666C20.4722 32.1666 20.8681 32.3263 21.1875 32.6458C21.507 32.9652 21.6667 33.3611 21.6667 33.8333V37.1666C21.6667 37.6388 21.507 38.0347 21.1875 38.3541C20.8681 38.6736 20.4722 38.8333 20 38.8333ZM9.41669 12.25L7.62502 10.5C7.29169 10.1944 7.13196 9.80552 7.14585 9.33329C7.15974 8.86107 7.31946 8.45829 7.62502 8.12496C7.95835 7.79163 8.36113 7.62496 8.83335 7.62496C9.30558 7.62496 9.69447 7.79163 10 8.12496L11.75 9.91663C12.0556 10.25 12.2084 10.6388 12.2084 11.0833C12.2084 11.5277 12.0556 11.9166 11.75 12.25C11.4445 12.5833 11.0625 12.743 10.6042 12.7291C10.1459 12.7152 9.75002 12.5555 9.41669 12.25ZM30 32.875L28.25 31.0833C27.9445 30.75 27.7917 30.3541 27.7917 29.8958C27.7917 29.4375 27.9445 29.0555 28.25 28.75C28.5556 28.4166 28.9375 28.2569 29.3959 28.2708C29.8542 28.2847 30.25 28.4444 30.5834 28.75L32.375 30.5C32.7084 30.8055 32.8681 31.1944 32.8542 31.6666C32.8403 32.1388 32.6806 32.5416 32.375 32.875C32.0417 33.2083 31.6389 33.375 31.1667 33.375C30.6945 33.375 30.3056 33.2083 30 32.875ZM28.25 12.25C27.9167 11.9444 27.757 11.5625 27.7709 11.1041C27.7847 10.6458 27.9445 10.25 28.25 9.91663L30 8.12496C30.3056 7.79163 30.6945 7.6319 31.1667 7.64579C31.6389 7.65968 32.0417 7.8194 32.375 8.12496C32.7084 8.45829 32.875 8.86107 32.875 9.33329C32.875 9.80552 32.7084 10.1944 32.375 10.5L30.5834 12.25C30.25 12.5555 29.8611 12.7083 29.4167 12.7083C28.9722 12.7083 28.5834 12.5555 28.25 12.25ZM7.62502 32.875C7.29169 32.5416 7.12502 32.1388 7.12502 31.6666C7.12502 31.1944 7.29169 30.8055 7.62502 30.5L9.41669 28.75C9.75002 28.4444 10.1459 28.2916 10.6042 28.2916C11.0625 28.2916 11.4445 28.4444 11.75 28.75C12.0834 29.0555 12.2431 29.4375 12.2292 29.8958C12.2153 30.3541 12.0556 30.75 11.75 31.0833L10 32.875C9.69447 33.2083 9.30558 33.368 8.83335 33.3541C8.36113 33.3402 7.95835 33.1805 7.62502 32.875Z" fill="#FFCA3A"/>
</svg>
