<svg width="33" height="33" viewBox="0 0 33 33" fill="none" xmlns="http://www.w3.org/2000/svg">
<path d="M25.2313 27.1906L23.3063 25.2313C23.0542 24.9563 22.9281 24.6297 22.9281 24.2516C22.9281 23.8734 23.0542 23.5583 23.3063 23.3063C23.5583 23.0542 23.8734 22.9281 24.2516 22.9281C24.6297 22.9281 24.9563 23.0542 25.2313 23.3063L27.1906 25.2313C27.4656 25.5063 27.6031 25.8328 27.6031 26.2109C27.6031 26.5891 27.4656 26.9156 27.1906 27.1906C26.9156 27.4656 26.5891 27.6031 26.2109 27.6031C25.8328 27.6031 25.5063 27.4656 25.2313 27.1906ZM8.25 27.5C6.7375 27.5 5.44271 26.9615 4.36563 25.8844C3.28854 24.8073 2.75 23.5125 2.75 22C2.75 20.4875 3.28854 19.1927 4.36563 18.1156C5.44271 17.0385 6.7375 16.5 8.25 16.5C9.35 16.5 10.3641 16.7979 11.2922 17.3938C12.2203 17.9896 12.8906 18.8031 13.3031 19.8344L13.6469 20.625H14.4719C15.4344 20.625 16.2422 20.9573 16.8953 21.6219C17.5484 22.2865 17.875 23.1 17.875 24.0625C17.875 25.025 17.5427 25.8385 16.8781 26.5031C16.2135 27.1677 15.4 27.5 14.4375 27.5H8.25ZM20.5906 23.65C20.499 22.2063 19.9776 20.9573 19.0266 19.9031C18.0755 18.849 16.8781 18.1958 15.4344 17.9438C14.724 16.7063 13.7672 15.7266 12.5641 15.0047C11.3609 14.2828 10.0375 13.8646 8.59375 13.75C9.18958 12.0771 10.2094 10.7422 11.6531 9.74531C13.0969 8.74844 14.7125 8.25 16.5 8.25C18.7917 8.25 20.7396 9.05208 22.3438 10.6563C23.9479 12.2604 24.75 14.2083 24.75 16.5C24.75 17.9896 24.3833 19.3703 23.65 20.6422C22.9167 21.9141 21.8969 22.9167 20.5906 23.65ZM27.5 17.875C27.1104 17.875 26.7839 17.7432 26.5203 17.4797C26.2568 17.2161 26.125 16.8896 26.125 16.5C26.125 16.1104 26.2568 15.7839 26.5203 15.5203C26.7839 15.2568 27.1104 15.125 27.5 15.125H30.25C30.6396 15.125 30.9661 15.2568 31.2297 15.5203C31.4932 15.7839 31.625 16.1104 31.625 16.5C31.625 16.8896 31.4932 17.2161 31.2297 17.4797C30.9661 17.7432 30.6396 17.875 30.25 17.875H27.5ZM7.76875 9.69375L5.80938 7.73438C5.55729 7.48229 5.43125 7.16146 5.43125 6.77188C5.43125 6.38229 5.55729 6.06146 5.80938 5.80938C6.08438 5.53438 6.41094 5.39688 6.78906 5.39688C7.16719 5.39688 7.49375 5.53438 7.76875 5.80938L9.69375 7.76875C9.94583 8.04375 10.0719 8.37031 10.0719 8.74844C10.0719 9.12656 9.94583 9.44167 9.69375 9.69375C9.44167 9.94583 9.12083 10.0719 8.73125 10.0719C8.34167 10.0719 8.02083 9.94583 7.76875 9.69375ZM23.3063 9.69375C23.0542 9.44167 22.9281 9.12656 22.9281 8.74844C22.9281 8.37031 23.0542 8.04375 23.3063 7.76875L25.2313 5.80938C25.5063 5.53438 25.8328 5.39688 26.2109 5.39688C26.5891 5.39688 26.9156 5.53438 27.1906 5.80938C27.4427 6.06146 27.5688 6.38229 27.5688 6.77188C27.5688 7.16146 27.4427 7.48229 27.1906 7.73438L25.2313 9.69375C24.9792 9.94583 24.6583 10.0719 24.2688 10.0719C23.8792 10.0719 23.5583 9.94583 23.3063 9.69375ZM16.5 6.875C16.1104 6.875 15.7839 6.74323 15.5203 6.47969C15.2568 6.21615 15.125 5.88958 15.125 5.5V2.75C15.125 2.36042 15.2568 2.03385 15.5203 1.77031C15.7839 1.50677 16.1104 1.375 16.5 1.375C16.8896 1.375 17.2161 1.50677 17.4797 1.77031C17.7432 2.03385 17.875 2.36042 17.875 2.75V5.5C17.875 5.88958 17.7432 6.21615 17.4797 6.47969C17.2161 6.74323 16.8896 6.875 16.5 6.875Z" fill="#FFD153"/>
</svg>
