<svg width="33" height="33" viewBox="0 0 33 33" fill="none" xmlns="http://www.w3.org/2000/svg">
<path d="M19.1813 30.1125C18.8375 30.2958 18.488 30.3245 18.1328 30.1984C17.7776 30.0724 17.5083 29.8375 17.325 29.4937L15.2625 25.3687C15.0792 25.025 15.0505 24.6755 15.1766 24.3203C15.3026 23.9651 15.5375 23.6958 15.8813 23.5125C16.225 23.3292 16.5745 23.3005 16.9297 23.4266C17.2849 23.5526 17.5542 23.7875 17.7375 24.1312L19.8 28.2562C19.9833 28.6 20.012 28.9495 19.8859 29.3047C19.7599 29.6599 19.525 29.9292 19.1813 30.1125ZM27.4313 30.1125C27.0875 30.2958 26.738 30.3245 26.3828 30.1984C26.0276 30.0724 25.7583 29.8375 25.575 29.4937L23.5125 25.3687C23.3292 25.025 23.3005 24.6755 23.4266 24.3203C23.5526 23.9651 23.7875 23.6958 24.1313 23.5125C24.475 23.3292 24.8245 23.3005 25.1797 23.4266C25.5349 23.5526 25.8042 23.7875 25.9875 24.1312L28.05 28.2562C28.2333 28.6 28.262 28.9495 28.1359 29.3047C28.0099 29.6599 27.775 29.9292 27.4313 30.1125ZM10.9313 30.1125C10.5875 30.2958 10.238 30.3245 9.88281 30.1984C9.5276 30.0724 9.25833 29.8375 9.075 29.4937L7.0125 25.3687C6.82917 25.025 6.80052 24.6755 6.92656 24.3203C7.0526 23.9651 7.2875 23.6958 7.63125 23.5125C7.975 23.3292 8.32448 23.3005 8.67969 23.4266C9.0349 23.5526 9.30417 23.7875 9.4875 24.1312L11.55 28.2562C11.7333 28.6 11.762 28.9495 11.6359 29.3047C11.5099 29.6599 11.275 29.9292 10.9313 30.1125ZM10.3125 22C8.22708 22 6.44531 21.2609 4.96719 19.7828C3.48906 18.3047 2.75 16.5229 2.75 14.4375C2.75 12.5354 3.38021 10.874 4.64063 9.45312C5.90104 8.03229 7.45938 7.19583 9.31563 6.94375C10.049 5.6375 11.0516 4.61198 12.3234 3.86719C13.5953 3.1224 14.9875 2.75 16.5 2.75C18.5625 2.75 20.3557 3.40885 21.8797 4.72656C23.4036 6.04427 24.326 7.68854 24.6469 9.65937C26.2281 9.79687 27.5573 10.45 28.6344 11.6187C29.7115 12.7875 30.25 14.1854 30.25 15.8125C30.25 17.5312 29.6484 18.9922 28.4453 20.1953C27.2422 21.3984 25.7813 22 24.0625 22H10.3125Z" fill="#1982C4"/>
</svg>
