<svg width="33" height="33" viewBox="0 0 33 33" fill="none" xmlns="http://www.w3.org/2000/svg">
<path d="M8.9375 26.125C8.45625 26.125 8.04948 25.9589 7.71719 25.6266C7.3849 25.2943 7.21875 24.8875 7.21875 24.4063C7.21875 23.925 7.3849 23.5182 7.71719 23.1859C8.04948 22.8536 8.45625 22.6875 8.9375 22.6875C9.41875 22.6875 9.82552 22.8536 10.1578 23.1859C10.4901 23.5182 10.6563 23.925 10.6563 24.4063C10.6563 24.8875 10.4901 25.2943 10.1578 25.6266C9.82552 25.9589 9.41875 26.125 8.9375 26.125ZM13.0625 30.25C12.5813 30.25 12.1745 30.0839 11.8422 29.7516C11.5099 29.4193 11.3438 29.0125 11.3438 28.5313C11.3438 28.05 11.5099 27.6432 11.8422 27.3109C12.1745 26.9786 12.5813 26.8125 13.0625 26.8125C13.5438 26.8125 13.9505 26.9786 14.2828 27.3109C14.6151 27.6432 14.7813 28.05 14.7813 28.5313C14.7813 29.0125 14.6151 29.4193 14.2828 29.7516C13.9505 30.0839 13.5438 30.25 13.0625 30.25ZM17.1875 26.125C16.7063 26.125 16.2995 25.9589 15.9672 25.6266C15.6349 25.2943 15.4688 24.8875 15.4688 24.4063C15.4688 23.925 15.6349 23.5182 15.9672 23.1859C16.2995 22.8536 16.7063 22.6875 17.1875 22.6875C17.6688 22.6875 18.0755 22.8536 18.4078 23.1859C18.7401 23.5182 18.9063 23.925 18.9063 24.4063C18.9063 24.8875 18.7401 25.2943 18.4078 25.6266C18.0755 25.9589 17.6688 26.125 17.1875 26.125ZM25.4375 26.125C24.9563 26.125 24.5495 25.9589 24.2172 25.6266C23.8849 25.2943 23.7188 24.8875 23.7188 24.4063C23.7188 23.925 23.8849 23.5182 24.2172 23.1859C24.5495 22.8536 24.9563 22.6875 25.4375 22.6875C25.9188 22.6875 26.3255 22.8536 26.6578 23.1859C26.9901 23.5182 27.1563 23.925 27.1563 24.4063C27.1563 24.8875 26.9901 25.2943 26.6578 25.6266C26.3255 25.9589 25.9188 26.125 25.4375 26.125ZM21.3125 30.25C20.8313 30.25 20.4245 30.0839 20.0922 29.7516C19.7599 29.4193 19.5938 29.0125 19.5938 28.5313C19.5938 28.05 19.7599 27.6432 20.0922 27.3109C20.4245 26.9786 20.8313 26.8125 21.3125 26.8125C21.7938 26.8125 22.2005 26.9786 22.5328 27.3109C22.8651 27.6432 23.0313 28.05 23.0313 28.5313C23.0313 29.0125 22.8651 29.4193 22.5328 29.7516C22.2005 30.0839 21.7938 30.25 21.3125 30.25ZM10.3125 20.625C8.22708 20.625 6.44531 19.8859 4.96719 18.4078C3.48906 16.9297 2.75 15.1479 2.75 13.0625C2.75 11.1604 3.38021 9.49896 4.64063 8.07813C5.90104 6.65729 7.45938 5.82083 9.31563 5.56875C10.049 4.2625 11.0516 3.23698 12.3234 2.49219C13.5953 1.7474 14.9875 1.375 16.5 1.375C18.5625 1.375 20.3557 2.03385 21.8797 3.35156C23.4036 4.66927 24.326 6.31354 24.6469 8.28438C26.2281 8.42188 27.5573 9.075 28.6344 10.2438C29.7115 11.4125 30.25 12.8104 30.25 14.4375C30.25 16.1563 29.6484 17.6172 28.4453 18.8203C27.2422 20.0234 25.7813 20.625 24.0625 20.625H10.3125Z" fill="#1982C4"/>
</svg>
