<svg width="33" height="33" viewBox="0 0 33 33" fill="none" xmlns="http://www.w3.org/2000/svg">
<path d="M9.625 28.875H6.875C6.11875 28.875 5.47135 28.6057 4.93281 28.0672C4.39427 27.5286 4.125 26.8813 4.125 26.125V16.5C4.125 14.7813 4.45156 13.1714 5.10469 11.6703C5.75781 10.1693 6.6401 8.86302 7.75156 7.75156C8.86302 6.6401 10.1693 5.75781 11.6703 5.10469C13.1714 4.45156 14.7813 4.125 16.5 4.125C18.2188 4.125 19.8286 4.45156 21.3297 5.10469C22.8307 5.75781 24.137 6.6401 25.2484 7.75156C26.3599 8.86302 27.2422 10.1693 27.8953 11.6703C28.5484 13.1714 28.875 14.7813 28.875 16.5V26.125C28.875 26.8813 28.6057 27.5286 28.0672 28.0672C27.5286 28.6057 26.8813 28.875 26.125 28.875H23.375C22.6188 28.875 21.9714 28.6057 21.4328 28.0672C20.8943 27.5286 20.625 26.8813 20.625 26.125V20.625C20.625 19.8688 20.8943 19.2214 21.4328 18.6828C21.9714 18.1443 22.6188 17.875 23.375 17.875H26.125V16.5C26.125 13.8188 25.1911 11.5443 23.3234 9.67656C21.4557 7.80885 19.1813 6.875 16.5 6.875C13.8188 6.875 11.5443 7.80885 9.67656 9.67656C7.80885 11.5443 6.875 13.8188 6.875 16.5V17.875H9.625C10.3813 17.875 11.0286 18.1443 11.5672 18.6828C12.1057 19.2214 12.375 19.8688 12.375 20.625V26.125C12.375 26.8813 12.1057 27.5286 11.5672 28.0672C11.0286 28.6057 10.3813 28.875 9.625 28.875Z" fill="#FAFAFA"/>
</svg>
