<svg width="40" height="41" viewBox="0 0 40 41" fill="none" xmlns="http://www.w3.org/2000/svg">
<path d="M20 35.5C15.8056 35.5 12.2569 34.0486 9.35417 31.1458C6.45139 28.2431 5 24.6944 5 20.5C5 16.6667 6.25 13.3403 8.75 10.5208C11.25 7.70139 14.4444 6.05556 18.3333 5.58333C18.6944 5.52778 19.0139 5.57639 19.2917 5.72917C19.5694 5.88194 19.7917 6.08333 19.9583 6.33333C20.125 6.58333 20.2153 6.875 20.2292 7.20833C20.2431 7.54167 20.1389 7.86111 19.9167 8.16667C19.4444 8.88889 19.0903 9.65278 18.8542 10.4583C18.6181 11.2639 18.5 12.1111 18.5 13C18.5 15.5 19.375 17.625 21.125 19.375C22.875 21.125 25 22 27.5 22C28.3611 22 29.2153 21.875 30.0625 21.625C30.9097 21.375 31.6667 21.0278 32.3333 20.5833C32.6389 20.3889 32.9514 20.2986 33.2708 20.3125C33.5903 20.3264 33.875 20.4028 34.125 20.5417C34.4028 20.6806 34.6181 20.8889 34.7708 21.1667C34.9236 21.4444 34.9722 21.7778 34.9167 22.1667C34.5278 26 32.8958 29.1806 30.0208 31.7083C27.1458 34.2361 23.8056 35.5 20 35.5Z" fill="#0A3560"/>
</svg>
