<svg width="40" height="40" viewBox="0 0 40 40" fill="none" xmlns="http://www.w3.org/2000/svg">
<path d="M12.5506 11.33L17.3046 5.16751C17.6442 4.71417 18.0474 4.38126 18.5144 4.16876C18.9813 3.95626 19.4694 3.85001 19.9788 3.85001C20.4881 3.85001 20.9763 3.95626 21.4432 4.16876C21.9101 4.38126 22.3134 4.71417 22.6529 5.16751L27.407 11.33L34.623 13.7525C35.3587 13.9792 35.9388 14.3971 36.3633 15.0063C36.7878 15.6154 37 16.2883 37 17.025C37 17.365 36.9505 17.705 36.8514 18.045C36.7524 18.385 36.5897 18.7108 36.3633 19.0225L31.6941 25.6525L31.8639 32.6225C31.8922 33.6142 31.5668 34.45 30.8876 35.13C30.2085 35.81 29.4161 36.15 28.5106 36.15C28.454 36.15 28.1427 36.1075 27.5768 36.0225L19.9788 33.8975L12.3808 36.0225C12.2393 36.0792 12.0836 36.1146 11.9139 36.1288C11.7441 36.1429 11.5884 36.15 11.4469 36.15C10.5414 36.15 9.74906 35.81 9.06991 35.13C8.39076 34.45 8.06533 33.6142 8.09363 32.6225L8.26342 25.61L3.6367 19.0225C3.41032 18.7108 3.24761 18.385 3.14856 18.045C3.04952 17.705 3 17.365 3 17.025C3 16.3167 3.20516 15.6579 3.61548 15.0488C4.0258 14.4396 4.59883 14.0075 5.33458 13.7525L12.5506 11.33Z" fill="#FAFAFA"/>
</svg>
