<svg width="13" height="13" viewBox="0 0 13 13" fill="none" xmlns="http://www.w3.org/2000/svg">
<path d="M3.65169 3.01053L5.46941 0.530263C5.59925 0.347807 5.75343 0.213816 5.93196 0.128289C6.11049 0.0427632 6.29713 0 6.49189 0C6.68664 0 6.87328 0.0427632 7.05181 0.128289C7.23034 0.213816 7.38452 0.347807 7.51436 0.530263L9.33208 3.01053L12.0911 3.98553C12.3725 4.07675 12.5943 4.24496 12.7566 4.49013C12.9189 4.73531 13 5.00614 13 5.30263C13 5.43947 12.9811 5.57632 12.9432 5.71316C12.9053 5.85 12.8431 5.98114 12.7566 6.10658L10.9713 8.775L11.0362 11.5803C11.047 11.9794 10.9226 12.3158 10.6629 12.5895C10.4032 12.8632 10.1003 13 9.75406 13C9.73242 13 9.6134 12.9829 9.397 12.9487L6.49189 12.0934L3.58677 12.9487C3.53267 12.9715 3.47316 12.9857 3.40824 12.9914C3.34332 12.9972 3.28381 13 3.22971 13C2.88348 13 2.58052 12.8632 2.32085 12.5895C2.06117 12.3158 1.93675 11.9794 1.94757 11.5803L2.01248 8.7579L0.243446 6.10658C0.156887 5.98114 0.0946733 5.85 0.056804 5.71316C0.0189347 5.57632 0 5.43947 0 5.30263C0 5.01754 0.0784436 4.75241 0.235331 4.50724C0.392218 4.26206 0.611319 4.08816 0.892634 3.98553L3.65169 3.01053Z" fill="#FAFAFA"/>
</svg>
