<svg width="16" height="15" viewBox="0 0 16 15" fill="none" xmlns="http://www.w3.org/2000/svg">
<path d="M4.49438 3.47368L6.73159 0.611842C6.89139 0.401316 7.08115 0.246711 7.30087 0.148026C7.5206 0.0493421 7.75031 0 7.99001 0C8.22971 0 8.45943 0.0493421 8.67915 0.148026C8.89888 0.246711 9.08864 0.401316 9.24844 0.611842L11.4856 3.47368L14.8814 4.59868C15.2276 4.70395 15.5006 4.89803 15.7004 5.18092C15.9001 5.46382 16 5.77632 16 6.11842C16 6.27632 15.9767 6.43421 15.9301 6.59211C15.8835 6.75 15.8069 6.90132 15.7004 7.04605L13.5031 10.125L13.583 13.3618C13.5963 13.8224 13.4432 14.2105 13.1236 14.5263C12.804 14.8421 12.4311 15 12.005 15C11.9784 15 11.8319 14.9803 11.5655 14.9408L7.99001 13.9539L4.41448 14.9408C4.3479 14.9671 4.27466 14.9836 4.19476 14.9901C4.11486 14.9967 4.04161 15 3.97503 15C3.5489 15 3.17603 14.8421 2.85643 14.5263C2.53683 14.2105 2.38369 13.8224 2.397 13.3618L2.4769 10.1053L0.299625 7.04605C0.193092 6.90132 0.116521 6.75 0.0699126 6.59211C0.0233042 6.43421 0 6.27632 0 6.11842C0 5.78947 0.096546 5.48355 0.289638 5.20066C0.48273 4.91776 0.752393 4.71711 1.09863 4.59868L4.49438 3.47368Z" fill="#FAFAFA"/>
</svg>
