<svg width="68" height="25" viewBox="0 0 68 25" fill="none" xmlns="http://www.w3.org/2000/svg">
<path d="M0.136364 19.1349V6.04404H3.76705V19.1349H0.136364ZM1.96023 4.35654C1.42045 4.35654 0.957386 4.17756 0.571023 3.81961C0.190341 3.45597 0 3.02131 0 2.51563C0 2.01563 0.190341 1.58665 0.571023 1.2287C0.957386 0.865061 1.42045 0.683243 1.96023 0.683243C2.5 0.683243 2.96023 0.865061 3.34091 1.2287C3.72727 1.58665 3.92045 2.01563 3.92045 2.51563C3.92045 3.02131 3.72727 3.45597 3.34091 3.81961C2.96023 4.17756 2.5 4.35654 1.96023 4.35654Z" fill="#FF6E82"/>
<path d="M9.77811 11.5668V19.1349H6.14743V6.04404H9.60765V8.3537H9.76106C10.0508 7.59233 10.5366 6.99006 11.2184 6.54688C11.9003 6.09802 12.727 5.87358 13.6986 5.87358C14.6077 5.87358 15.4003 6.07245 16.0764 6.47018C16.7525 6.8679 17.2781 7.43608 17.6531 8.17472C18.0281 8.90768 18.2156 9.78268 18.2156 10.7997V19.1349H14.5849V11.4474C14.5906 10.6463 14.3861 10.0213 13.9713 9.57245C13.5565 9.1179 12.9855 8.89063 12.2582 8.89063C11.7696 8.89063 11.3378 8.99574 10.9628 9.20597C10.5934 9.4162 10.3037 9.72302 10.0934 10.1264C9.8889 10.5242 9.78379 11.0043 9.77811 11.5668Z" fill="#8AC926"/>
<path d="M26.4468 24.3168C25.2707 24.3168 24.2622 24.1548 23.4213 23.831C22.586 23.5128 21.9213 23.0781 21.427 22.527C20.9326 21.9759 20.6116 21.3565 20.4639 20.669L23.8218 20.2173C23.9241 20.4787 24.086 20.723 24.3076 20.9503C24.5292 21.1776 24.8218 21.3594 25.1855 21.4957C25.5548 21.6378 26.0037 21.7088 26.5321 21.7088C27.3218 21.7088 27.9724 21.5156 28.4838 21.1293C29.0008 20.7486 29.2593 20.1094 29.2593 19.2117V16.8168H29.1059C28.9468 17.1804 28.7082 17.5242 28.39 17.848C28.0718 18.1719 27.6628 18.4361 27.1628 18.6406C26.6628 18.8452 26.0662 18.9474 25.373 18.9474C24.39 18.9474 23.4951 18.7202 22.6883 18.2656C21.8872 17.8054 21.248 17.1037 20.7707 16.1605C20.2991 15.2117 20.0633 14.0128 20.0633 12.5639C20.0633 11.081 20.3048 9.84233 20.7878 8.84802C21.2707 7.8537 21.9127 7.10938 22.7139 6.61506C23.5207 6.12074 24.4042 5.87358 25.3645 5.87358C26.0974 5.87358 26.711 5.99858 27.2054 6.24858C27.6997 6.4929 28.0974 6.79972 28.3985 7.16904C28.7054 7.53268 28.9412 7.89063 29.1059 8.2429H29.2423V6.04404H32.8474V19.2628C32.8474 20.3764 32.5747 21.3082 32.0292 22.0582C31.4838 22.8082 30.7281 23.3707 29.7622 23.7457C28.802 24.1264 27.6968 24.3168 26.4468 24.3168ZM26.5235 16.2202C27.1088 16.2202 27.6031 16.0753 28.0065 15.7855C28.4156 15.4901 28.7281 15.0696 28.944 14.5242C29.1656 13.973 29.2764 13.3139 29.2764 12.5469C29.2764 11.7798 29.1684 11.1151 28.9525 10.5526C28.7366 9.98438 28.4241 9.54404 28.015 9.23154C27.6059 8.91904 27.1088 8.76279 26.5235 8.76279C25.927 8.76279 25.4241 8.92472 25.015 9.24858C24.6059 9.56677 24.2963 10.0099 24.086 10.5781C23.8758 11.1463 23.7707 11.8026 23.7707 12.5469C23.7707 13.3026 23.8758 13.956 24.086 14.5071C24.302 15.0526 24.6116 15.4759 25.015 15.777C25.4241 16.0724 25.927 16.2202 26.5235 16.2202Z" fill="#131312"/>
<path d="M38.9416 19.3821C38.1063 19.3821 37.362 19.2372 36.7086 18.9474C36.0552 18.652 35.5382 18.2173 35.1575 17.6435C34.7825 17.0639 34.595 16.3423 34.595 15.4787C34.595 14.7514 34.7285 14.1406 34.9955 13.6463C35.2626 13.152 35.6262 12.7543 36.0865 12.4531C36.5467 12.152 37.0694 11.9247 37.6546 11.7713C38.2455 11.6179 38.8649 11.5099 39.5126 11.4474C40.274 11.3679 40.8876 11.294 41.3535 11.2259C41.8194 11.152 42.1575 11.044 42.3677 10.902C42.5779 10.7599 42.683 10.5497 42.683 10.2713V10.2202C42.683 9.6804 42.5126 9.26279 42.1717 8.96733C41.8365 8.67188 41.3592 8.52415 40.7399 8.52415C40.0865 8.52415 39.5666 8.66904 39.1802 8.95881C38.7938 9.2429 38.5382 9.60086 38.4132 10.0327L35.0552 9.75995C35.2257 8.96449 35.5609 8.27699 36.0609 7.69745C36.5609 7.11222 37.2058 6.66336 37.9955 6.35086C38.791 6.03268 39.7115 5.87358 40.7569 5.87358C41.4842 5.87358 42.1802 5.95881 42.845 6.12927C43.5154 6.29972 44.1092 6.56393 44.6262 6.92188C45.149 7.27983 45.5609 7.74006 45.862 8.30256C46.1632 8.85938 46.3137 9.52699 46.3137 10.3054V19.1349H42.8705V17.3196H42.7683C42.558 17.7287 42.2768 18.0895 41.9245 18.402C41.5722 18.7088 41.149 18.9503 40.6546 19.1264C40.1603 19.2969 39.5893 19.3821 38.9416 19.3821ZM39.9813 16.8764C40.5154 16.8764 40.987 16.7713 41.3961 16.5611C41.8052 16.3452 42.1262 16.0554 42.3592 15.6918C42.5921 15.3281 42.7086 14.9162 42.7086 14.456V13.0668C42.595 13.1406 42.4387 13.2088 42.2399 13.2713C42.0467 13.3281 41.8279 13.3821 41.5836 13.4332C41.3393 13.4787 41.095 13.5213 40.8507 13.5611C40.6063 13.5952 40.3847 13.6264 40.1859 13.6548C39.7598 13.7173 39.3876 13.8168 39.0694 13.9531C38.7512 14.0895 38.5041 14.2742 38.3279 14.5071C38.1518 14.7344 38.0637 15.0185 38.0637 15.3594C38.0637 15.8537 38.2427 16.2315 38.6007 16.4929C38.9643 16.7486 39.4245 16.8764 39.9813 16.8764Z" fill="#131312"/>
<path d="M48.6707 19.1349V1.6804H52.3014V8.2429H52.4121C52.5712 7.89063 52.8014 7.53268 53.1025 7.16904C53.4093 6.79972 53.807 6.4929 54.2957 6.24858C54.79 5.99858 55.4036 5.87358 56.1366 5.87358C57.0911 5.87358 57.9718 6.12358 58.7786 6.62358C59.5854 7.1179 60.2303 7.86506 60.7133 8.86506C61.1962 9.85938 61.4377 11.1065 61.4377 12.6065C61.4377 14.0668 61.2019 15.2997 60.7303 16.3054C60.2644 17.3054 59.6281 18.0639 58.8212 18.581C58.0201 19.0923 57.1224 19.348 56.1281 19.348C55.4235 19.348 54.8241 19.2315 54.3298 18.9986C53.8411 18.7656 53.4406 18.473 53.1281 18.1207C52.8156 17.7628 52.5769 17.402 52.4121 17.0384H52.2502V19.1349H48.6707ZM52.2246 12.5895C52.2246 13.3679 52.3326 14.0469 52.5485 14.6264C52.7644 15.206 53.0769 15.6577 53.486 15.9815C53.8951 16.2997 54.3923 16.4588 54.9775 16.4588C55.5684 16.4588 56.0684 16.2969 56.4775 15.973C56.8866 15.6435 57.1962 15.1889 57.4065 14.6094C57.6224 14.0242 57.7303 13.3509 57.7303 12.5895C57.7303 11.8338 57.6252 11.169 57.415 10.5952C57.2048 10.0213 56.8951 9.57245 56.486 9.24858C56.0769 8.92472 55.5741 8.76279 54.9775 8.76279C54.3866 8.76279 53.8866 8.91904 53.4775 9.23154C53.0741 9.54404 52.7644 9.98722 52.5485 10.5611C52.3326 11.1349 52.2246 11.8111 52.2246 12.5895Z" fill="#131312"/>
<path d="M65.4545 19.3565C64.892 19.3565 64.409 19.1577 64.0056 18.7599C63.6079 18.3565 63.409 17.8736 63.409 17.3111C63.409 16.7543 63.6079 16.277 64.0056 15.8793C64.409 15.4815 64.892 15.2827 65.4545 15.2827C65.9999 15.2827 66.4772 15.4815 66.8863 15.8793C67.2954 16.277 67.4999 16.7543 67.4999 17.3111C67.4999 17.6861 67.4033 18.0298 67.2101 18.3423C67.0226 18.6492 66.7755 18.8963 66.4687 19.0838C66.1618 19.2656 65.8238 19.3565 65.4545 19.3565Z" fill="#FFD153"/>
</svg>
