<svg width="38" height="38" viewBox="0 0 38 38" fill="none" xmlns="http://www.w3.org/2000/svg">
<mask id="mask0_199_16" style="mask-type:alpha" maskUnits="userSpaceOnUse" x="0" y="0" width="38" height="38">
<rect width="38" height="38" rx="19" fill="#D9D9D9"/>
</mask>
<g mask="url(#mask0_199_16)">
<path d="M5.66667 29C4.74619 29 4 28.2538 4 27.3333V27.3333C4 26.4129 4.74619 25.6667 5.66667 25.6667H32.3333C33.2538 25.6667 34 26.4129 34 27.3333V27.3333C34 28.2538 33.2538 29 32.3333 29H5.66667ZM5.66667 20.6667C4.74619 20.6667 4 19.9205 4 19V19C4 18.0795 4.74619 17.3333 5.66667 17.3333H32.3333C33.2538 17.3333 34 18.0795 34 19V19C34 19.9205 33.2538 20.6667 32.3333 20.6667H5.66667ZM5.66667 12.3333C4.74619 12.3333 4 11.5871 4 10.6667V10.6667C4 9.74619 4.74619 9 5.66667 9H32.3333C33.2538 9 34 9.74619 34 10.6667V10.6667C34 11.5871 33.2538 12.3333 32.3333 12.3333H5.66667Z" fill="#8AC926"/>
</g>
</svg>
