<svg width="19" height="18" viewBox="0 0 19 18" fill="none" xmlns="http://www.w3.org/2000/svg">
<rect x="0.5" width="18" height="18" rx="9" fill="#FFF9D3"/>
<mask id="mask0_169_1530" style="mask-type:alpha" maskUnits="userSpaceOnUse" x="2" y="2" width="15" height="14">
<rect x="2.5" y="2" width="14" height="14" fill="#D9D9D9"/>
</mask>
<g mask="url(#mask0_169_1530)">
<path d="M12.5042 14.075L8.975 10.5167C8.78056 10.5944 8.58368 10.6528 8.38437 10.6917C8.18507 10.7306 7.97361 10.75 7.75 10.75C6.77778 10.75 5.95139 10.4097 5.27083 9.72917C4.59028 9.04861 4.25 8.22222 4.25 7.25C4.25 6.9 4.29861 6.56701 4.39583 6.25104C4.49306 5.93507 4.62917 5.63611 4.80417 5.35417L6.93333 7.48333L7.98333 6.43333L5.85417 4.30417C6.13611 4.12917 6.43507 3.99306 6.75104 3.89583C7.06701 3.79861 7.4 3.75 7.75 3.75C8.72222 3.75 9.54861 4.09028 10.2292 4.77083C10.9097 5.45139 11.25 6.27778 11.25 7.25C11.25 7.47361 11.2306 7.68507 11.1917 7.88437C11.1528 8.08368 11.0944 8.28056 11.0167 8.475L14.575 12.0042C14.6917 12.1208 14.75 12.2618 14.75 12.4271C14.75 12.5924 14.6917 12.7333 14.575 12.85L13.35 14.075C13.2333 14.1917 13.0924 14.25 12.9271 14.25C12.7618 14.25 12.6208 14.1917 12.5042 14.075Z" fill="#FFCA3A"/>
</g>
</svg>
