<svg width="19" height="18" viewBox="0 0 19 18" fill="none" xmlns="http://www.w3.org/2000/svg">
<rect x="0.25" width="18" height="18" rx="9" fill="#FBEEFF"/>
<mask id="mask0_169_1524" style="mask-type:alpha" maskUnits="userSpaceOnUse" x="2" y="2" width="15" height="14">
<rect x="2.25" y="2" width="14" height="14" fill="#D9D9D9"/>
</mask>
<g mask="url(#mask0_169_1524)">
<path d="M9.87716 14.8333V12.9666L9.04591 12.85C8.51119 12.7722 8.07612 12.5802 7.74071 12.2739C7.40529 11.9677 7.23758 11.6104 7.23758 11.202C7.23758 10.7354 7.4296 10.3441 7.81362 10.0281C8.19765 9.71211 8.65703 9.56871 9.19175 9.59788C9.24036 9.59788 9.28168 9.60031 9.31571 9.60517C9.34973 9.61003 9.38619 9.61732 9.42508 9.62704C9.3473 9.54927 9.27439 9.47878 9.20633 9.41559C9.13828 9.35239 9.07508 9.28677 9.01675 9.21871C8.8223 9.00482 8.68133 8.80795 8.59383 8.62808C8.50633 8.44822 8.46258 8.26593 8.46258 8.08121C8.46258 7.71177 8.5671 7.40795 8.77612 7.16975C8.98515 6.93156 9.2598 6.81246 9.60008 6.81246C9.66814 6.81246 9.7605 6.81489 9.87716 6.81975C9.99383 6.82461 10.1202 6.83677 10.2563 6.85621C10.2758 6.66177 10.2758 6.46246 10.2563 6.25829C10.2369 6.05413 10.2272 5.85482 10.2272 5.66038C10.2272 5.04788 10.3924 4.57635 10.723 4.24579C11.0536 3.91524 11.5251 3.74996 12.1376 3.74996C12.682 3.74996 13.1365 3.90551 13.5011 4.21663C13.8657 4.52774 14.0431 4.9069 14.0334 5.35413C14.0334 5.57774 13.9945 5.79649 13.9167 6.01038C13.839 6.22427 13.7515 6.43329 13.6542 6.63746C13.7029 6.62774 13.7539 6.62045 13.8074 6.61558C13.8608 6.61072 13.9119 6.60829 13.9605 6.60829C14.4272 6.60829 14.8282 6.776 15.1636 7.11142C15.499 7.44683 15.6667 7.8576 15.6667 8.34371C15.6667 8.76177 15.5185 9.1385 15.222 9.47392C14.9254 9.80933 14.5779 10.0305 14.1792 10.1375C14.2473 10.1569 14.3105 10.1763 14.3688 10.1958C14.4272 10.2152 14.4855 10.2395 14.5438 10.2687C14.8258 10.4048 15.0542 10.5968 15.2292 10.8448C15.4042 11.0927 15.4917 11.3625 15.4917 11.6541C15.4917 12.0236 15.3289 12.3468 15.0032 12.6239C14.6775 12.901 14.2133 13.1125 13.6105 13.2583L13.0272 13.4041V14.8333H9.87716ZM4.48133 14.25L3.41675 13.7687L6.33341 7.35204L7.398 7.83329L4.48133 14.25ZM4.26258 8.16871C3.98064 7.88677 3.76918 7.56836 3.62821 7.2135C3.48723 6.85864 3.41675 6.48677 3.41675 6.09788C3.41675 5.28121 3.69869 4.5885 4.26258 4.01975C4.82647 3.451 5.51675 3.16663 6.33341 3.16663C6.7223 3.16663 7.09418 3.23954 7.44904 3.38538C7.8039 3.53121 8.1223 3.7451 8.40425 4.02704L7.58758 4.84371C7.4223 4.67843 7.23029 4.55204 7.01154 4.46454C6.79279 4.37704 6.56675 4.33329 6.33341 4.33329C5.8473 4.33329 5.43411 4.50343 5.09383 4.84371C4.75355 5.18399 4.58341 5.59718 4.58341 6.08329C4.58341 6.31663 4.62716 6.54267 4.71466 6.76142C4.80216 6.98017 4.92855 7.17218 5.09383 7.33746L4.26258 8.16871Z" fill="#8762A2"/>
</g>
</svg>
