<svg width="18" height="18" viewBox="0 0 18 18" fill="none" xmlns="http://www.w3.org/2000/svg">
<rect width="18" height="18" rx="9" fill="#E5F5B7"/>
<mask id="mask0_169_1518" style="mask-type:alpha" maskUnits="userSpaceOnUse" x="2" y="2" width="14" height="14">
<rect x="2" y="2" width="14" height="14" fill="#D9D9D9"/>
</mask>
<g mask="url(#mask0_169_1518)">
<path d="M9.29167 8.97087C9.57361 8.65976 9.78993 8.3049 9.94062 7.90629C10.0913 7.50768 10.1667 7.09449 10.1667 6.66671C10.1667 6.23893 10.0913 5.82574 9.94062 5.42712C9.78993 5.02851 9.57361 4.67365 9.29167 4.36254C9.875 4.44032 10.3611 4.69796 10.75 5.13546C11.1389 5.57296 11.3333 6.08337 11.3333 6.66671C11.3333 7.25004 11.1389 7.76046 10.75 8.19796C10.3611 8.63546 9.875 8.8931 9.29167 8.97087ZM12.5 13.6667V11.9167C12.5 11.5667 12.4222 11.2337 12.2667 10.9177C12.1111 10.6018 11.9069 10.3223 11.6542 10.0792C12.15 10.2542 12.6094 10.4802 13.0323 10.7573C13.4552 11.0344 13.6667 11.4209 13.6667 11.9167V13.6667H12.5ZM13.6667 9.58337V8.41671H12.5V7.25004H13.6667V6.08337H14.8333V7.25004H16V8.41671H14.8333V9.58337H13.6667ZM6.66667 9.00004C6.025 9.00004 5.47569 8.77157 5.01875 8.31462C4.56181 7.85768 4.33333 7.30837 4.33333 6.66671C4.33333 6.02504 4.56181 5.47574 5.01875 5.01879C5.47569 4.56185 6.025 4.33337 6.66667 4.33337C7.30833 4.33337 7.85764 4.56185 8.31458 5.01879C8.77153 5.47574 9 6.02504 9 6.66671C9 7.30837 8.77153 7.85768 8.31458 8.31462C7.85764 8.77157 7.30833 9.00004 6.66667 9.00004ZM2 13.6667V12.0334C2 11.7028 2.08507 11.399 2.25521 11.1219C2.42535 10.8448 2.65139 10.6334 2.93333 10.4875C3.53611 10.1862 4.14861 9.96011 4.77083 9.80942C5.39306 9.65872 6.025 9.58337 6.66667 9.58337C7.30833 9.58337 7.94028 9.65872 8.5625 9.80942C9.18472 9.96011 9.79722 10.1862 10.4 10.4875C10.6819 10.6334 10.908 10.8448 11.0781 11.1219C11.2483 11.399 11.3333 11.7028 11.3333 12.0334V13.6667H2Z" fill="#72AA1F"/>
</g>
</svg>
