<svg width="16" height="16" viewBox="0 0 16 16" fill="none" xmlns="http://www.w3.org/2000/svg">
<path d="M9.71859 7.39698C9.62814 7.13568 9.48995 6.90704 9.30402 6.71106C9.11809 6.51508 8.89447 6.37186 8.63317 6.28141V2C10.0704 2.1407 11.294 2.71608 12.304 3.72613C13.3141 4.73618 13.8894 5.9598 14.0302 7.39698H9.71859ZM7.42714 14C5.8794 13.8492 4.58794 13.201 3.55276 12.0553C2.51759 10.9095 2 9.55779 2 8C2 6.44221 2.51759 5.09045 3.55276 3.94472C4.58794 2.799 5.8794 2.15075 7.42714 2V6.28141C7.06533 6.41206 6.77387 6.63568 6.55276 6.95226C6.33166 7.26884 6.22111 7.61809 6.22111 8C6.22111 8.38191 6.33166 8.72613 6.55276 9.03266C6.77387 9.3392 7.06533 9.55779 7.42714 9.68844V14ZM8.63317 14V9.68844C8.89447 9.59799 9.11809 9.4598 9.30402 9.27387C9.48995 9.08794 9.62814 8.86432 9.71859 8.60301H14.0302C13.8894 10.0402 13.3141 11.2638 12.304 12.2739C11.294 13.2839 10.0704 13.8593 8.63317 14Z" fill="#FF6E82"/>
</svg>
