<svg width="18" height="18" viewBox="0 0 18 18" fill="none" xmlns="http://www.w3.org/2000/svg">
<rect width="18" height="18" rx="9" fill="#DDF2FF"/>
<mask id="mask0_169_759" style="mask-type:alpha" maskUnits="userSpaceOnUse" x="2" y="2" width="14" height="14">
<rect x="2" y="2" width="14" height="14" fill="#D9D9D9"/>
</mask>
<g mask="url(#mask0_169_759)">
<path d="M8.41659 14.8333C8.09575 14.8333 7.8211 14.7191 7.59263 14.4906C7.36415 14.2622 7.24992 13.9875 7.24992 13.6667V11.3333H5.49992C5.17909 11.3333 4.90443 11.2191 4.67596 10.9906C4.44749 10.7622 4.33325 10.4875 4.33325 10.1667V6.08333C4.33325 5.44167 4.56172 4.89236 5.01867 4.43542C5.47561 3.97847 6.02492 3.75 6.66659 3.75H13.6666V10.1667C13.6666 10.4875 13.5523 10.7622 13.3239 10.9906C13.0954 11.2191 12.8208 11.3333 12.4999 11.3333H10.7499V13.6667C10.7499 13.9875 10.6357 14.2622 10.4072 14.4906C10.1787 14.7191 9.90409 14.8333 9.58325 14.8333H8.41659ZM5.49992 7.83333H12.4999V4.91667H11.9166V7.25H10.7499V4.91667H10.1666V6.08333H8.99992V4.91667H6.66659C6.34575 4.91667 6.0711 5.0309 5.84263 5.25938C5.61415 5.48785 5.49992 5.7625 5.49992 6.08333V7.83333Z" fill="#1982C4"/>
</g>
</svg>
