<svg width="19" height="18" viewBox="0 0 19 18" fill="none" xmlns="http://www.w3.org/2000/svg">
<rect x="0.75" width="18" height="18" rx="9" fill="#FFE6F9"/>
<path d="M4.79167 12.9083C4.47083 12.9083 4.19618 12.7941 3.96771 12.5656C3.73924 12.3372 3.625 12.0625 3.625 11.7417V4.74168C3.625 4.42085 3.73924 4.14619 3.96771 3.91772C4.19618 3.68925 4.47083 3.57501 4.79167 3.57501H8.29167L9.45833 4.74168H14.125C14.4458 4.74168 14.7205 4.85591 14.949 5.08439C15.1774 5.31286 15.2917 5.58751 15.2917 5.90835V8.82501H11.2083C10.2361 8.82501 9.40972 9.16529 8.72917 9.84585C8.04861 10.5264 7.70833 11.3528 7.70833 12.325V12.9083H4.79167ZM10.975 14.425L8.875 12.325L10.975 10.225L11.7917 11.0563L10.5229 12.325L11.7917 13.5938L10.975 14.425ZM13.775 14.425L12.9583 13.5938L14.2271 12.325L12.9583 11.0563L13.775 10.225L15.875 12.325L13.775 14.425Z" fill="#FF6E82"/>
</svg>
