<svg width="19" height="18" viewBox="0 0 19 18" fill="none" xmlns="http://www.w3.org/2000/svg">
<rect x="0.25" width="18" height="18" rx="9" fill="#FBEEFF"/>
<mask id="mask0_169_743" style="mask-type:alpha" maskUnits="userSpaceOnUse" x="2" y="2" width="15" height="14">
<rect x="2.25" y="2" width="14" height="14" fill="#D9D9D9"/>
</mask>
<g mask="url(#mask0_169_743)">
<path d="M9.87716 14.8333V12.9667L9.04591 12.85C8.51119 12.7722 8.07612 12.5802 7.74071 12.2739C7.40529 11.9677 7.23758 11.6104 7.23758 11.2021C7.23758 10.7354 7.4296 10.3441 7.81362 10.0281C8.19765 9.71214 8.65703 9.56874 9.19175 9.59791C9.24036 9.59791 9.28168 9.60034 9.31571 9.6052C9.34973 9.61006 9.38619 9.61735 9.42508 9.62707C9.3473 9.5493 9.27439 9.47881 9.20633 9.41562C9.13828 9.35242 9.07508 9.2868 9.01675 9.21874C8.8223 9.00485 8.68133 8.80798 8.59383 8.62812C8.50633 8.44825 8.46258 8.26596 8.46258 8.08124C8.46258 7.7118 8.5671 7.40798 8.77612 7.16978C8.98515 6.93159 9.2598 6.81249 9.60008 6.81249C9.66814 6.81249 9.7605 6.81492 9.87716 6.81978C9.99383 6.82464 10.1202 6.8368 10.2563 6.85624C10.2758 6.6618 10.2758 6.46249 10.2563 6.25832C10.2369 6.05416 10.2272 5.85485 10.2272 5.66041C10.2272 5.04791 10.3924 4.57638 10.723 4.24582C11.0536 3.91527 11.5251 3.74999 12.1376 3.74999C12.682 3.74999 13.1365 3.90555 13.5011 4.21666C13.8657 4.52777 14.0431 4.90693 14.0334 5.35416C14.0334 5.57777 13.9945 5.79652 13.9167 6.01041C13.839 6.2243 13.7515 6.43332 13.6542 6.63749C13.7029 6.62777 13.7539 6.62048 13.8074 6.61562C13.8608 6.61075 13.9119 6.60832 13.9605 6.60832C14.4272 6.60832 14.8282 6.77603 15.1636 7.11145C15.499 7.44687 15.6667 7.85763 15.6667 8.34374C15.6667 8.7618 15.5185 9.13853 15.222 9.47395C14.9254 9.80937 14.5779 10.0305 14.1792 10.1375C14.2473 10.1569 14.3105 10.1764 14.3688 10.1958C14.4272 10.2153 14.4855 10.2396 14.5438 10.2687C14.8258 10.4049 15.0542 10.5969 15.2292 10.8448C15.4042 11.0927 15.4917 11.3625 15.4917 11.6542C15.4917 12.0236 15.3289 12.3469 15.0032 12.6239C14.6775 12.901 14.2133 13.1125 13.6105 13.2583L13.0272 13.4042V14.8333H9.87716ZM4.48133 14.25L3.41675 13.7687L6.33341 7.35207L7.398 7.83332L4.48133 14.25ZM4.26258 8.16874C3.98064 7.8868 3.76918 7.56839 3.62821 7.21353C3.48723 6.85867 3.41675 6.4868 3.41675 6.09791C3.41675 5.28124 3.69869 4.58853 4.26258 4.01978C4.82647 3.45103 5.51675 3.16666 6.33341 3.16666C6.7223 3.16666 7.09418 3.23957 7.44904 3.38541C7.8039 3.53124 8.1223 3.74513 8.40425 4.02707L7.58758 4.84374C7.4223 4.67846 7.23029 4.55207 7.01154 4.46457C6.79279 4.37707 6.56675 4.33332 6.33341 4.33332C5.8473 4.33332 5.43411 4.50346 5.09383 4.84374C4.75355 5.18402 4.58341 5.59721 4.58341 6.08332C4.58341 6.31666 4.62716 6.5427 4.71466 6.76145C4.80216 6.9802 4.92855 7.17221 5.09383 7.33749L4.26258 8.16874Z" fill="#8762A2"/>
</g>
</svg>
