<svg width="18" height="18" viewBox="0 0 18 18" fill="none" xmlns="http://www.w3.org/2000/svg">
<rect width="18" height="18" rx="9" fill="#E5F5B7"/>
<mask id="mask0_169_737" style="mask-type:alpha" maskUnits="userSpaceOnUse" x="2" y="2" width="14" height="14">
<rect x="2" y="2" width="14" height="14" fill="#D9D9D9"/>
</mask>
<g mask="url(#mask0_169_737)">
<path d="M9.29167 8.97084C9.57361 8.65973 9.78993 8.30487 9.94062 7.90626C10.0913 7.50765 10.1667 7.09445 10.1667 6.66668C10.1667 6.2389 10.0913 5.8257 9.94062 5.42709C9.78993 5.02848 9.57361 4.67362 9.29167 4.36251C9.875 4.44029 10.3611 4.69793 10.75 5.13543C11.1389 5.57293 11.3333 6.08334 11.3333 6.66668C11.3333 7.25001 11.1389 7.76043 10.75 8.19793C10.3611 8.63543 9.875 8.89307 9.29167 8.97084ZM12.5 13.6667V11.9167C12.5 11.5667 12.4222 11.2337 12.2667 10.9177C12.1111 10.6017 11.9069 10.3222 11.6542 10.0792C12.15 10.2542 12.6094 10.4802 13.0323 10.7573C13.4552 11.0344 13.6667 11.4208 13.6667 11.9167V13.6667H12.5ZM13.6667 9.58334V8.41668H12.5V7.25001H13.6667V6.08334H14.8333V7.25001H16V8.41668H14.8333V9.58334H13.6667ZM6.66667 9.00001C6.025 9.00001 5.47569 8.77154 5.01875 8.31459C4.56181 7.85765 4.33333 7.30834 4.33333 6.66668C4.33333 6.02501 4.56181 5.4757 5.01875 5.01876C5.47569 4.56182 6.025 4.33334 6.66667 4.33334C7.30833 4.33334 7.85764 4.56182 8.31458 5.01876C8.77153 5.4757 9 6.02501 9 6.66668C9 7.30834 8.77153 7.85765 8.31458 8.31459C7.85764 8.77154 7.30833 9.00001 6.66667 9.00001ZM2 13.6667V12.0333C2 11.7028 2.08507 11.399 2.25521 11.1219C2.42535 10.8448 2.65139 10.6333 2.93333 10.4875C3.53611 10.1861 4.14861 9.96008 4.77083 9.80938C5.39306 9.65869 6.025 9.58334 6.66667 9.58334C7.30833 9.58334 7.94028 9.65869 8.5625 9.80938C9.18472 9.96008 9.79722 10.1861 10.4 10.4875C10.6819 10.6333 10.908 10.8448 11.0781 11.1219C11.2483 11.399 11.3333 11.7028 11.3333 12.0333V13.6667H2Z" fill="#8AC926"/>
</g>
</svg>
