<svg width="16" height="16" viewBox="0 0 16 16" fill="none" xmlns="http://www.w3.org/2000/svg">
<path d="M3.52632 13V10.6389L10.4605 3.33333C10.5658 3.22222 10.6842 3.13889 10.8158 3.08333C10.9474 3.02778 11.0789 3 11.2105 3C11.3509 3 11.4846 3.02778 11.6118 3.08333C11.739 3.13889 11.8509 3.22222 11.9474 3.33333L12.6842 4.11111C12.7895 4.21296 12.8684 4.33102 12.9211 4.46528C12.9737 4.59954 13 4.74074 13 4.88889C13 5.02778 12.9737 5.16667 12.9211 5.30556C12.8684 5.44444 12.7895 5.56944 12.6842 5.68056L5.76316 13H3.52632ZM11.2368 5.65278L11.9474 4.90278L11.1974 4.11111L10.4868 4.86111L11.2368 5.65278ZM8.78947 13C9.4386 13 10.0395 12.8287 10.5921 12.4861C11.1447 12.1435 11.4211 11.6667 11.4211 11.0556C11.4211 10.7222 11.3377 10.4352 11.1711 10.1944C11.0044 9.9537 10.7807 9.74537 10.5 9.56944L9.72368 10.3889C9.92544 10.4815 10.0833 10.5833 10.1974 10.6944C10.3114 10.8056 10.3684 10.9259 10.3684 11.0556C10.3684 11.2685 10.2083 11.4606 9.88816 11.6319C9.56798 11.8032 9.20175 11.8889 8.78947 11.8889C8.64035 11.8889 8.51535 11.9421 8.41447 12.0486C8.3136 12.1551 8.26316 12.287 8.26316 12.4444C8.26316 12.6019 8.3136 12.7338 8.41447 12.8403C8.51535 12.9468 8.64035 13 8.78947 13ZM3.82895 8.75L4.61842 7.91667C4.44298 7.84259 4.30482 7.7662 4.20395 7.6875C4.10307 7.6088 4.05263 7.52778 4.05263 7.44444C4.05263 7.33333 4.13158 7.22222 4.28947 7.11111C4.44737 7 4.7807 6.8287 5.28947 6.59722C6.0614 6.24537 6.57456 5.92593 6.82895 5.63889C7.08333 5.35185 7.21053 5.02778 7.21053 4.66667C7.21053 4.15741 7.01754 3.75231 6.63158 3.45139C6.24561 3.15046 5.73684 3 5.10526 3C4.71053 3 4.35746 3.07407 4.04605 3.22222C3.73465 3.37037 3.49561 3.55093 3.32895 3.76389C3.23246 3.88426 3.19298 4.01852 3.21053 4.16667C3.22807 4.31481 3.29386 4.43519 3.40789 4.52778C3.52193 4.62963 3.64912 4.6713 3.78947 4.65278C3.92982 4.63426 4.04825 4.57407 4.14474 4.47222C4.26754 4.34259 4.40351 4.25 4.55263 4.19444C4.70175 4.13889 4.88596 4.11111 5.10526 4.11111C5.46491 4.11111 5.73026 4.16667 5.90132 4.27778C6.07237 4.38889 6.15789 4.51852 6.15789 4.66667C6.15789 4.7963 6.08114 4.91435 5.92763 5.02083C5.77412 5.12731 5.42105 5.31481 4.86842 5.58333C4.16667 5.90741 3.67982 6.20139 3.40789 6.46528C3.13596 6.72917 3 7.05556 3 7.44444C3 7.74074 3.07456 7.99306 3.22368 8.20139C3.37281 8.40972 3.57456 8.59259 3.82895 8.75Z" fill="#FF6E82"/>
</svg>
