<svg width="16" height="16" viewBox="0 0 16 16" fill="none" xmlns="http://www.w3.org/2000/svg">
<path d="M9.23333 14C8.63333 14 8.12778 13.7944 7.71667 13.3833C7.30556 12.9722 7.1 12.4778 7.1 11.9C7.1 11.0556 7.44167 10.2917 8.125 9.60833C8.80833 8.925 9.66111 8.5 10.6833 8.33333C10.65 7.93333 10.55 7.63056 10.3833 7.425C10.2167 7.21944 9.98889 7.11667 9.7 7.11667C9.36667 7.11667 9.00556 7.25556 8.61667 7.53333C8.22778 7.81111 7.76667 8.26667 7.23333 8.9C6.36667 9.93333 5.73056 10.6056 5.325 10.9167C4.91944 11.2278 4.48333 11.3833 4.01667 11.3833C3.45 11.3833 2.97222 11.1722 2.58333 10.75C2.19444 10.3278 2 9.81667 2 9.21667C2 8.61667 2.13056 8.00278 2.39167 7.375C2.65278 6.74722 3.09444 5.99444 3.71667 5.11667C3.92778 4.82778 4.08333 4.58333 4.18333 4.38333C4.28333 4.18333 4.33333 4.02222 4.33333 3.9C4.33333 3.82222 4.31944 3.76389 4.29167 3.725C4.26389 3.68611 4.22222 3.66667 4.16667 3.66667C4.05556 3.66667 3.91667 3.73611 3.75 3.875C3.58333 4.01389 3.38889 4.22778 3.16667 4.51667L2 3.33333C2.35556 2.9 2.71667 2.56944 3.08333 2.34167C3.45 2.11389 3.81111 2 4.16667 2C4.67778 2 5.11111 2.17778 5.46667 2.53333C5.82222 2.88889 6 3.33333 6 3.86667C6 4.18889 5.91667 4.54444 5.75 4.93333C5.58333 5.32222 5.30556 5.78889 4.91667 6.33333C4.49444 6.93333 4.18056 7.46111 3.975 7.91667C3.76944 8.37222 3.66667 8.77222 3.66667 9.11667C3.66667 9.30556 3.69722 9.45278 3.75833 9.55833C3.81944 9.66389 3.90556 9.71667 4.01667 9.71667C4.12778 9.71667 4.225 9.68611 4.30833 9.625C4.39167 9.56389 4.54444 9.41667 4.76667 9.18333C4.91111 9.02778 5.08333 8.83611 5.28333 8.60833C5.48333 8.38056 5.72778 8.1 6.01667 7.76667C6.71667 6.93333 7.35 6.33889 7.91667 5.98333C8.48333 5.62778 9.07778 5.45 9.7 5.45C10.4444 5.45 11.0556 5.7 11.5333 6.2C12.0111 6.7 12.2833 7.38333 12.35 8.25H14V9.91667H12.35C12.2611 11.1611 11.9361 12.1528 11.375 12.8917C10.8139 13.6306 10.1 14 9.23333 14ZM9.26667 12.3333C9.62222 12.3333 9.92222 12.1306 10.1667 11.725C10.4111 11.3194 10.5778 10.7556 10.6667 10.0333C10.1556 10.1556 9.71111 10.3972 9.33333 10.7583C8.95556 11.1194 8.76667 11.4778 8.76667 11.8333C8.76667 11.9889 8.81111 12.1111 8.9 12.2C8.98889 12.2889 9.11111 12.3333 9.26667 12.3333Z" fill="#439AD0"/>
</svg>
