<svg width="33" height="33" viewBox="0 0 33 33" fill="none" xmlns="http://www.w3.org/2000/svg">
<path d="M11.2406 31.625C11.0115 31.625 10.8339 31.5333 10.7078 31.35C10.5818 31.1667 10.5531 30.9719 10.6219 30.7656L11.55 28.1875H9.41875C9.30417 28.1875 9.2125 28.1417 9.14375 28.05C9.075 27.9583 9.06354 27.8552 9.10938 27.7406L10.4156 24.0625C10.4844 23.8563 10.6047 23.6901 10.7766 23.5641C10.9484 23.438 11.149 23.375 11.3781 23.375H13.0625C13.3146 23.375 13.5094 23.4781 13.6469 23.6844C13.7844 23.8906 13.7958 24.1083 13.6813 24.3375L12.6156 26.8125H14.7469C14.8844 26.8125 14.9875 26.8755 15.0563 27.0016C15.125 27.1276 15.1135 27.2479 15.0219 27.3625L11.8938 31.3844C11.825 31.476 11.7448 31.5391 11.6531 31.5734C11.5615 31.6078 11.424 31.625 11.2406 31.625ZM20.5219 30.25C20.2927 30.25 20.1151 30.1583 19.9891 29.975C19.863 29.7917 19.8344 29.5969 19.9031 29.3906L20.5563 27.5H18.3563C18.2417 27.5 18.15 27.4542 18.0813 27.3625C18.0125 27.2708 18.001 27.1677 18.0469 27.0531L19.1125 24.0625C19.1813 23.8563 19.3016 23.6901 19.4734 23.5641C19.6453 23.438 19.8458 23.375 20.075 23.375H21.725C21.9771 23.375 22.1776 23.4781 22.3266 23.6844C22.4755 23.8906 22.4927 24.1083 22.3781 24.3375L21.5875 26.125H23.6844C23.8219 26.125 23.9193 26.188 23.9766 26.3141C24.0339 26.4401 24.0167 26.5604 23.925 26.675L21.175 30.0094C21.1521 30.0323 20.9344 30.1125 20.5219 30.25ZM10.3125 22C8.22708 22 6.44531 21.2609 4.96719 19.7828C3.48906 18.3047 2.75 16.5229 2.75 14.4375C2.75 12.5354 3.38021 10.874 4.64063 9.45313C5.90104 8.03229 7.45938 7.19583 9.31563 6.94375C10.049 5.6375 11.0516 4.61198 12.3234 3.86719C13.5953 3.1224 14.9875 2.75 16.5 2.75C18.5625 2.75 20.3557 3.40885 21.8797 4.72656C23.4036 6.04427 24.326 7.68854 24.6469 9.65938C26.2281 9.79688 27.5573 10.45 28.6344 11.6188C29.7115 12.7875 30.25 14.1854 30.25 15.8125C30.25 17.5313 29.6484 18.9922 28.4453 20.1953C27.2422 21.3984 25.7813 22 24.0625 22H10.3125Z" fill="#439AD0"/>
</svg>
