<svg width="33" height="33" viewBox="0 0 33 33" fill="none" xmlns="http://www.w3.org/2000/svg">
<path d="M16.5 6.875C16.1104 6.875 15.7839 6.74323 15.5203 6.47969C15.2568 6.21615 15.125 5.88958 15.125 5.5V2.75C15.125 2.36042 15.2568 2.03385 15.5203 1.77031C15.7839 1.50677 16.1104 1.375 16.5 1.375C16.8896 1.375 17.2161 1.50677 17.4797 1.77031C17.7432 2.03385 17.875 2.36042 17.875 2.75V5.5C17.875 5.88958 17.7432 6.21615 17.4797 6.47969C17.2161 6.74323 16.8896 6.875 16.5 6.875ZM23.3062 9.69375C23.0542 9.44167 22.9281 9.12656 22.9281 8.74844C22.9281 8.37031 23.0542 8.04375 23.3062 7.76875L25.2312 5.80937C25.5062 5.53437 25.8328 5.39687 26.2109 5.39687C26.5891 5.39687 26.9156 5.53437 27.1906 5.80937C27.4427 6.06146 27.5687 6.38229 27.5687 6.77187C27.5687 7.16146 27.4427 7.48229 27.1906 7.73437L25.2312 9.69375C24.9792 9.94583 24.6583 10.0719 24.2687 10.0719C23.8792 10.0719 23.5583 9.94583 23.3062 9.69375ZM27.5 17.875C27.1104 17.875 26.7839 17.7432 26.5203 17.4797C26.2568 17.2161 26.125 16.8896 26.125 16.5C26.125 16.1104 26.2568 15.7839 26.5203 15.5203C26.7839 15.2568 27.1104 15.125 27.5 15.125H30.25C30.6396 15.125 30.9661 15.2568 31.2297 15.5203C31.4932 15.7839 31.625 16.1104 31.625 16.5C31.625 16.8896 31.4932 17.2161 31.2297 17.4797C30.9661 17.7432 30.6396 17.875 30.25 17.875H27.5ZM16.5 31.625C16.1104 31.625 15.7839 31.4932 15.5203 31.2297C15.2568 30.9661 15.125 30.6396 15.125 30.25V27.5C15.125 27.1104 15.2568 26.7839 15.5203 26.5203C15.7839 26.2568 16.1104 26.125 16.5 26.125C16.8896 26.125 17.2161 26.2568 17.4797 26.5203C17.7432 26.7839 17.875 27.1104 17.875 27.5V30.25C17.875 30.6396 17.7432 30.9661 17.4797 31.2297C17.2161 31.4932 16.8896 31.625 16.5 31.625ZM7.76875 9.69375L5.80937 7.76875C5.53437 7.49375 5.39687 7.16146 5.39687 6.77187C5.39687 6.38229 5.53437 6.06146 5.80937 5.80937C6.06146 5.55729 6.38229 5.43125 6.77187 5.43125C7.16146 5.43125 7.48229 5.55729 7.73437 5.80937L9.69375 7.76875C9.94583 8.02083 10.0719 8.34167 10.0719 8.73125C10.0719 9.12083 9.94583 9.44167 9.69375 9.69375C9.41875 9.94583 9.09792 10.0719 8.73125 10.0719C8.36458 10.0719 8.04375 9.94583 7.76875 9.69375ZM25.2312 27.1906L23.3062 25.2312C23.0542 24.9562 22.9281 24.6297 22.9281 24.2516C22.9281 23.8734 23.0542 23.5583 23.3062 23.3062C23.5583 23.0542 23.8734 22.9281 24.2516 22.9281C24.6297 22.9281 24.9562 23.0542 25.2312 23.3062L27.1906 25.2312C27.4656 25.4833 27.5974 25.8042 27.5859 26.1937C27.5745 26.5833 27.4427 26.9156 27.1906 27.1906C26.9156 27.4656 26.5833 27.6031 26.1937 27.6031C25.8042 27.6031 25.4833 27.4656 25.2312 27.1906ZM2.75 17.875C2.36042 17.875 2.03385 17.7432 1.77031 17.4797C1.50677 17.2161 1.375 16.8896 1.375 16.5C1.375 16.1104 1.50677 15.7839 1.77031 15.5203C2.03385 15.2568 2.36042 15.125 2.75 15.125H5.5C5.88958 15.125 6.21615 15.2568 6.47969 15.5203C6.74323 15.7839 6.875 16.1104 6.875 16.5C6.875 16.8896 6.74323 17.2161 6.47969 17.4797C6.21615 17.7432 5.88958 17.875 5.5 17.875H2.75ZM5.80937 27.1906C5.55729 26.9385 5.43125 26.6177 5.43125 26.2281C5.43125 25.8385 5.55729 25.5177 5.80937 25.2656L7.76875 23.3062C8.02083 23.0542 8.33594 22.9281 8.71406 22.9281C9.09219 22.9281 9.41875 23.0542 9.69375 23.3062C9.96875 23.5812 10.1062 23.9078 10.1062 24.2859C10.1062 24.6641 9.96875 24.9906 9.69375 25.2656L7.76875 27.1906C7.49375 27.4656 7.16146 27.6031 6.77187 27.6031C6.38229 27.6031 6.06146 27.4656 5.80937 27.1906ZM16.5 24.75C14.2083 24.75 12.2604 23.9479 10.6562 22.3437C9.05208 20.7396 8.25 18.7917 8.25 16.5C8.25 14.2083 9.05208 12.2604 10.6562 10.6562C12.2604 9.05208 14.2083 8.25 16.5 8.25C18.7917 8.25 20.7396 9.05208 22.3437 10.6562C23.9479 12.2604 24.75 14.2083 24.75 16.5C24.75 18.7917 23.9479 20.7396 22.3437 22.3437C20.7396 23.9479 18.7917 24.75 16.5 24.75Z" fill="#FFDB75"/>
</svg>
