<svg width="16" height="16" viewBox="0 0 16 16" fill="none" xmlns="http://www.w3.org/2000/svg">
<path d="M5.27273 7.54545C4.64394 7.54545 4.10795 7.32386 3.66477 6.88068C3.22159 6.4375 3 5.90152 3 5.27273C3 4.63636 3.22159 4.09848 3.66477 3.65909C4.10795 3.2197 4.64394 3 5.27273 3C5.90909 3 6.44697 3.2197 6.88636 3.65909C7.32576 4.09848 7.54545 4.63636 7.54545 5.27273C7.54545 5.90152 7.32576 6.4375 6.88636 6.88068C6.44697 7.32386 5.90909 7.54545 5.27273 7.54545ZM9.81818 13C9.56818 13 9.35417 12.911 9.17614 12.733C8.99811 12.5549 8.90909 12.3409 8.90909 12.0909V9.81818C8.90909 9.56818 8.99811 9.35417 9.17614 9.17614C9.35417 8.99811 9.56818 8.90909 9.81818 8.90909H12.0909C12.3409 8.90909 12.5549 8.99811 12.733 9.17614C12.911 9.35417 13 9.56818 13 9.81818V12.0909C13 12.3409 12.911 12.5549 12.733 12.733C12.5549 12.911 12.3409 13 12.0909 13H9.81818ZM10.6023 6.04545L6.04545 10.5909C6.08333 10.6818 6.11553 10.7765 6.14205 10.875C6.16856 10.9735 6.18182 11.0758 6.18182 11.1818C6.18182 11.5606 6.05114 11.8826 5.78977 12.1477C5.52841 12.4129 5.20455 12.5455 4.81818 12.5455C4.43939 12.5455 4.11742 12.4129 3.85227 12.1477C3.58712 11.8826 3.45455 11.5606 3.45455 11.1818C3.45455 10.7955 3.58712 10.4716 3.85227 10.2102C4.11742 9.94886 4.43939 9.81818 4.81818 9.81818C4.92424 9.81818 5.02652 9.83144 5.125 9.85795C5.22348 9.88447 5.31818 9.91667 5.40909 9.95455L9.95455 5.39773C9.91667 5.30682 9.88447 5.21402 9.85795 5.11932C9.83144 5.02462 9.81818 4.92424 9.81818 4.81818C9.81818 4.43182 9.95076 4.10795 10.2159 3.84659C10.4811 3.58523 10.803 3.45455 11.1818 3.45455C11.5682 3.45455 11.892 3.58523 12.1534 3.84659C12.4148 4.10795 12.5455 4.43182 12.5455 4.81818C12.5455 5.19697 12.4148 5.51894 12.1534 5.78409C11.892 6.04924 11.5682 6.18182 11.1818 6.18182C11.0758 6.18182 10.9754 6.16856 10.8807 6.14205C10.786 6.11553 10.6932 6.08333 10.6023 6.04545Z" fill="#C4A6CF"/>
</svg>
