<svg width="16" height="18" viewBox="0 0 16 18" fill="none" xmlns="http://www.w3.org/2000/svg">
<path d="M4.0625 15.75L3.875 14.1L6.0125 8.2125C6.2 8.3875 6.40313 8.53438 6.62188 8.65313C6.84063 8.77188 7.075 8.8625 7.325 8.925L5.2625 14.5875L4.0625 15.75ZM11.9375 15.75L10.7375 14.5875L8.675 8.925C8.925 8.8625 9.15938 8.77188 9.37813 8.65313C9.59688 8.53438 9.8 8.3875 9.9875 8.2125L12.125 14.1L11.9375 15.75ZM8 8.25C7.375 8.25 6.84375 8.03125 6.40625 7.59375C5.96875 7.15625 5.75 6.625 5.75 6C5.75 5.5125 5.89063 5.07813 6.17188 4.69688C6.45313 4.31563 6.8125 4.05 7.25 3.9V2.25H8.75V3.9C9.1875 4.05 9.54688 4.31563 9.82813 4.69688C10.1094 5.07813 10.25 5.5125 10.25 6C10.25 6.625 10.0313 7.15625 9.59375 7.59375C9.15625 8.03125 8.625 8.25 8 8.25ZM8 6.75C8.2125 6.75 8.39063 6.67813 8.53438 6.53438C8.67813 6.39063 8.75 6.2125 8.75 6C8.75 5.7875 8.67813 5.60938 8.53438 5.46563C8.39063 5.32188 8.2125 5.25 8 5.25C7.7875 5.25 7.60938 5.32188 7.46563 5.46563C7.32188 5.60938 7.25 5.7875 7.25 6C7.25 6.2125 7.32188 6.39063 7.46563 6.53438C7.60938 6.67813 7.7875 6.75 8 6.75Z" fill="#FFE598"/>
</svg>
